<svg xmlns="http://www.w3.org/2000/svg" width="200" height="100" fill="none" font-family="ui-monospace,SFMono-Regular,Menlo,monospace">
  <path stroke="#f5a524" stroke-width="2" stroke-dasharray="3 4" opacity=".6" fill="none" d="M42 50C80 50 80 21 112 21M42 50C80 50 80 50 112 50M42 50C80 50 80 79 112 79"/>
  <rect x="10" y="34" width="32" height="32" rx="9" fill="#f5a524"/>
  <path stroke="#0a0a10" stroke-width="2.2" stroke-linecap="round" stroke-linejoin="round" fill="none" d="M20.5 47.5l4 4 7-7"/>
  <g><rect x="112" y="12" width="80" height="18" rx="9" fill="#15151d" stroke="rgba(255,255,255,.10)"/><circle cx="121" cy="21" r="2.4" fill="#34d399"/><text x="128" y="24.3" font-size="8" fill="#c3c4cf">a1f3c9e</text></g>
  <g><rect x="112" y="41" width="80" height="18" rx="9" fill="#15151d" stroke="rgba(255,255,255,.10)"/><circle cx="121" cy="50" r="2.4" fill="#34d399"/><text x="128" y="53.3" font-size="8" fill="#c3c4cf">7b2d004</text></g>
  <g><rect x="112" y="70" width="80" height="18" rx="9" fill="#15151d" stroke="rgba(255,255,255,.10)"/><circle cx="121" cy="79" r="2.4" fill="#f5a524"/><text x="128" y="82.3" font-size="8" fill="#c3c4cf">c4e9a17</text></g>
</svg>
